
        <svg xmlns="http://www.w3.org/2000/svg" xmlns:xlink="http://www.w3.org/1999/xlink" version="1.1" width="3162.1621621621625" 
        height="1165.5142601384016" viewBox="0 -72.97297297297298 3162.1621621621625 1165.5142601384016">
			
			<g transform="scale(8.108108108108109) translate(10, 10)">
				<defs id="SvgjsDefs4016"><linearGradient id="SvgjsLinearGradient4023"><stop id="SvgjsStop4024" stop-color="#b88746" offset="0"></stop><stop id="SvgjsStop4025" stop-color="#fdf5a6" offset="1"></stop></linearGradient></defs><g id="SvgjsG4017" featureKey="symbolFeature-0" transform="matrix(1.2508912476073144,0,0,1.2508912476073144,-13.894899730289934,-14.17243559516253)" fill="#ffffff"><path xmlns="http://www.w3.org/2000/svg" d="M51.58,5.867l-1-1.732L11.108,26.924v46.154l9.661,5.578L60.74,55.578V44.424l-7.66-4.423l4.062-2.345l7.661,4.423v15.846  L26.331,80.135l1,1.732l39.472-22.789V40.924l-7.66-4.423l4.062-2.345l7.66,4.422v22.846L32.394,83.635l1,1.732l39.471-22.789  V37.424l-7.66-4.423l4.062-2.345l7.66,4.422v29.846L38.456,87.135l1,1.732l39.471-22.789V33.924l-7.66-4.423l4.062-2.345  l7.661,4.422v36.846L44.518,90.635l1,1.732l39.472-22.789V30.424l-7.66-4.423l4.062-2.345l7.66,4.422v43.846L50.58,94.135l1,1.732  l39.471-22.789V26.924l-9.66-5.578L41.42,44.424v11.154l7.66,4.423l-4.062,2.345l-7.661-4.423V42.078l38.472-22.211l-1-1.732  L35.357,40.924v18.154l7.66,4.423l-4.062,2.345l-7.661-4.422V38.578l26.348-15.211v0l12.124-7l-1-1.732L29.295,37.424v25.154  l7.661,4.423l-4.062,2.345l-7.66-4.422V35.078l38.471-22.211l-1-1.732L23.233,33.924v32.154l7.66,4.423l-4.062,2.345l-7.661-4.422  V31.578L57.643,9.367l-1-1.732L17.171,30.424v39.154l7.66,4.423l-4.062,2.345l-7.661-4.422V28.078L51.58,5.867z M43.42,54.424  v-8.846l7.66-4.422l7.66,4.422v8.846l-7.66,4.422L43.42,54.424z"></path></g><g id="SvgjsG4018" featureKey="nameFeature-0" transform="matrix(2.2646908584324246,0,0,2.2646908584324246,118.67221306457361,-15.671265207338987)" fill="url(#SvgjsLinearGradient4023)"><path d="M22.539 40 l-2.0508 -5.8203 l-11.855 0 l-2.0508 5.8203 l-5.9961 0 l10.391 -28.223 l7.168 0 l10.391 28.223 l-5.9961 0 z M10.352 29.277 l8.418 0 l-4.1992 -11.973 z M32.77339375 40 l0 -28.223 l5.8594 0 l0 28.223 l-5.8594 0 z M56.367625000000004 40.39063 c-6.1914 0 -11.035 -3.1641 -11.035 -10.273 l0 -18.34 l5.8594 0 l0 17.539 c0 4.2969 2.2852 5.8984 5.1758 5.8984 c2.9102 0 5.2148 -1.6211 5.2148 -5.8984 l0 -17.539 l5.8594 0 l0 18.34 c0 7.1094 -4.8633 10.273 -11.074 10.273 z M74.1601125 40 l0 -28.223 l5.8594 0 l0 28.223 l-5.8594 0 z M87.30464375 40 l0 -28.223 l10.215 0 c9.0039 0 13.457 5.6641 13.457 14.102 c0 8.457 -4.4531 14.121 -13.457 14.121 l-10.215 0 z M93.16404375 34.8242 l4.0625 0 c5.1953 0 7.5781 -3.2422 7.5781 -8.9453 s-2.3828 -8.9453 -7.5781 -8.9453 l-4.0625 0 l0 17.891 z"></path></g><g id="SvgjsG4019" featureKey="sloganFeature-0" transform="matrix(0.6527189901792364,0,0,0.6527189901792364,118.8078741648168,86.28386858705203)" fill="#ffffff"><path d="M10.01 8.467 l-5.2344 0 l0 3.2031 l4.6387 0 l0 2.5488 l-4.6387 0 l0 3.1934 l5.2344 0 l0 2.5879 l-8.1836 0 l0 -14.111 l8.1836 0 l0 2.5781 z M37.57583984375 5.888999999999999 l2.9199 0 l0 14.111 l-3.3887 0 l-6.25 -10.088 l0 10.088 l-2.9199 0 l0 -14.111 l3.3496 0 l6.2891 10.029 l0 -10.029 z M67.2414453125 8.467 l-5.2344 0 l0 3.2031 l4.6387 0 l0 2.5488 l-4.6387 0 l0 3.1934 l5.2344 0 l0 2.5879 l-8.1836 0 l0 -14.111 l8.1836 0 l0 2.5781 z M92.61958515625 20 l-3.6719 -6.2109 l-0.84961 0 l0 6.2109 l-2.9297 0 l0 -14.111 l5.1172 0 c3.1934 0 4.541 1.8848 4.541 4.2188 c0 1.8945 -1.0742 3.125 -2.9883 3.5352 l4.248 6.3574 l-3.4668 0 z M88.09818515625 8.32 l0 3.3691 l1.7285 0 c1.5625 0 2.1973 -0.66406 2.1973 -1.6797 c0 -1.0059 -0.63477 -1.6895 -2.1973 -1.6895 l-1.7285 0 z M119.248059375 20.19531 c-4.0723 0 -7.0703 -2.8125 -7.0703 -7.2168 c0 -4.4629 3.0664 -7.2852 7.2168 -7.2852 c2.7246 0 4.9805 1.2012 6.2109 3.3203 l-2.5684 1.3672 c-0.74219 -1.4453 -2.0703 -2.1387 -3.6426 -2.1387 c-2.4414 0 -4.2773 1.6797 -4.2773 4.668 c0 2.8809 1.7188 4.7363 4.3848 4.7363 c1.8066 0 3.4668 -0.89844 3.8672 -2.959 l-3.8574 0 l0 -2.3535 l6.6309 0 l0 7.666 l-2.3047 0 l0 -1.9531 c-0.9082 1.3379 -2.4316 2.1484 -4.5898 2.1484 z M154.67518359375 5.888999999999999 l-4.6387 7.3535 l0 6.7578 l-2.9395 0 l0 -6.6895 l-4.668 -7.4219 l3.2422 0 l2.8809 4.8047 l2.8906 -4.8047 l3.2324 0 z M199.85619140625 5.888999999999999 l0 2.5781 l-3.3496 0 l0 11.533 l-2.9004 0 l0 -11.533 l-3.3691 0 l0 -2.5781 l9.6191 0 z M224.43355 20 l-3.6719 -6.2109 l-0.84961 0 l0 6.2109 l-2.9297 0 l0 -14.111 l5.1172 0 c3.1934 0 4.541 1.8848 4.541 4.2188 c0 1.8945 -1.0742 3.125 -2.9883 3.5352 l4.248 6.3574 l-3.4668 0 z M219.91215 8.32 l0 3.3691 l1.7285 0 c1.5625 0 2.1973 -0.66406 2.1973 -1.6797 c0 -1.0059 -0.63477 -1.6895 -2.1973 -1.6895 l-1.7285 0 z M254.40232421875 20 l-1.0254 -2.9102 l-5.9277 0 l-1.0254 2.9102 l-2.998 0 l5.1953 -14.111 l3.584 0 l5.1953 14.111 l-2.998 0 z M248.30812421875 14.6387 l4.209 0 l-2.0996 -5.9863 z M274.4287390625 20 l0 -14.111 l5.1074 0 c4.502 0 6.7285 2.832 6.7285 7.0508 c0 4.2285 -2.2266 7.0605 -6.7285 7.0605 l-5.1074 0 z M277.3584390625 17.4121 l2.0313 0 c2.5977 0 3.7891 -1.6211 3.7891 -4.4727 s-1.1914 -4.4727 -3.7891 -4.4727 l-2.0313 0 l0 8.9453 z M303.91848515625 20 l0 -14.111 l2.9297 0 l0 14.111 l-2.9297 0 z M335.03921875 5.888999999999999 l2.9199 0 l0 14.111 l-3.3887 0 l-6.25 -10.088 l0 10.088 l-2.9199 0 l0 -14.111 l3.3496 0 l6.2891 10.029 l0 -10.029 z M362.62452421875 20.19531 c-4.0723 0 -7.0703 -2.8125 -7.0703 -7.2168 c0 -4.4629 3.0664 -7.2852 7.2168 -7.2852 c2.7246 0 4.9805 1.2012 6.2109 3.3203 l-2.5684 1.3672 c-0.74219 -1.4453 -2.0703 -2.1387 -3.6426 -2.1387 c-2.4414 0 -4.2773 1.6797 -4.2773 4.668 c0 2.8809 1.7188 4.7363 4.3848 4.7363 c1.8066 0 3.4668 -0.89844 3.8672 -2.959 l-3.8574 0 l0 -2.3535 l6.6309 0 l0 7.666 l-2.3047 0 l0 -1.9531 c-0.9082 1.3379 -2.4316 2.1484 -4.5898 2.1484 z"></path></g>
			</g>
		</svg>
	